<?xml version="1.0" encoding="utf-8"?>
<!-- Generator: Adobe Illustrator 27.9.1, SVG Export Plug-In . SVG Version: 6.00 Build 0)  -->
<svg version="1.1" id="Layer_1" xmlns="http://www.w3.org/2000/svg" xmlns:xlink="http://www.w3.org/1999/xlink" x="0px" y="0px"
	 viewBox="0 0 595.28 841.89" style="enable-background:new 0 0 595.28 841.89;" xml:space="preserve">
<style type="text/css">
	.st0{fill:#25628D;}
	.st1{fill:#FFFFFF;}
</style>
<g>
	<path class="st0" d="M407.02,541.01H188.98c-6.6,0-12-5.4-12-12V310.97c0-6.6,5.4-12,12-12h218.04c6.6,0,12,5.4,12,12v218.04
		C419.02,535.61,413.62,541.01,407.02,541.01z"/>
	<path class="st1" d="M306.34,542.03v-93.62H274v-38.47h32.34v-36.43c0,0,0-37.79,46.64-39.15c0,0,6.47-1.36,29.62,0v35.4
		l-27.57,0.34c0,0-10.88-0.79-10.72,12.94l0.17,25.36l37.28-0.17L378,447.9h-31.66l-0.17,94.13H306.34z"/>
</g>
</svg>
