<?xml version="1.0" encoding="utf-8"?>
<!-- Generator: Adobe Illustrator 27.9.1, SVG Export Plug-In . SVG Version: 6.00 Build 0)  -->
<svg version="1.1" id="Layer_1" xmlns="http://www.w3.org/2000/svg" xmlns:xlink="http://www.w3.org/1999/xlink" x="0px" y="0px"
	 viewBox="0 0 595.28 841.89" style="enable-background:new 0 0 595.28 841.89;" xml:space="preserve">
<style type="text/css">
	.st0{fill:#EF4136;}
	.st1{fill:#FFFFFF;}
	.st2{fill:none;stroke:#000000;stroke-width:0.5788;stroke-miterlimit:10;}
</style>
<g>
	<path class="st0" d="M365.07,545.27H230.93c-31.73,0-57.7-25.96-57.7-57.7V353.43c0-31.73,25.96-57.7,57.7-57.7h134.14
		c31.73,0,57.7,25.96,57.7,57.7v134.14C422.77,519.3,396.8,545.27,365.07,545.27z"/>
	<circle class="st1" cx="267.19" cy="420.5" r="49.7"/>
	<circle class="st0" cx="267.19" cy="420.5" r="28.77"/>
	<polygon class="st1" points="315.92,410.68 267.19,410.68 267.19,430.84 315.81,430.84 	"/>
	<polygon class="st1" points="373.74,410.68 357.06,410.68 357.06,394.41 343.11,394.41 343.11,410.68 326.09,410.68 326.09,425.73 
		343.11,425.73 343.11,441.73 357.06,441.73 357.06,425.73 373.74,425.73 	"/>
	<path class="st0" d="M286.05,398.79l15.29-14.38c0,0,24.5,6.11,14.58,26.27H293.7C293.7,410.68,276.65,401.46,286.05,398.79z"/>
</g>
</svg>
