<?xml version="1.0" encoding="utf-8"?>
<!-- Generator: Adobe Illustrator 27.9.1, SVG Export Plug-In . SVG Version: 6.00 Build 0)  -->
<svg version="1.1" id="Layer_1" xmlns="http://www.w3.org/2000/svg" xmlns:xlink="http://www.w3.org/1999/xlink" x="0px" y="0px"
	 viewBox="0 0 595.28 841.89" style="enable-background:new 0 0 595.28 841.89;" xml:space="preserve">
<style type="text/css">
	.st0{fill:#3080B8;}
	.st1{fill:#FFFFFF;}
	.st2{fill:#3281B8;}
</style>
<g>
	<path class="st0" d="M372.14,541.27H223.86c-25.64,0-46.62-20.98-46.62-46.62V346.36c0-25.64,20.98-46.62,46.62-46.62h148.28
		c25.64,0,46.62,20.98,46.62,46.62v148.28C418.77,520.29,397.79,541.27,372.14,541.27z"/>
	<rect x="211.96" y="390.29" class="st1" width="37.79" height="117.79"/>
	<path class="st1" d="M341.66,386.88c-17.44,0-26.96,6.49-32.13,14.01c-0.38,0.55-1.23,0.3-1.23-0.37v-9.56
		c0-0.37-0.3-0.67-0.67-0.67h-35.76c-0.37,0-0.67,0.3-0.67,0.67V507.4c0,0.37,0.3,0.67,0.67,0.67h35.76c0.37,0,0.67-0.3,0.67-0.67
		v-62.99v-8.71c0-0.05,0.04-0.09,0.04-0.14c0-10.97,13.61-19.05,26.86-14.97c0,0,17.01,1.7,12.94,42.18c0,0.02,0,0.05,0,0.07
		l0.62,44.58c0.01,0.37,0.31,0.66,0.67,0.66h34.79c0.37,0,0.67-0.3,0.67-0.67v-81.37C384.89,426.03,383.19,386.88,341.66,386.88z"/>
	<circle class="st1" cx="230.85" cy="353.2" r="21.02"/>
	<rect x="339.48" y="451.52" class="st2" width="9.19" height="56.94"/>
</g>
</svg>
