<?xml version="1.0" encoding="utf-8"?>
<!-- Generator: Adobe Illustrator 27.9.1, SVG Export Plug-In . SVG Version: 6.00 Build 0)  -->
<svg version="1.1" id="Layer_1" xmlns="http://www.w3.org/2000/svg" xmlns:xlink="http://www.w3.org/1999/xlink" x="0px" y="0px"
	 viewBox="0 0 595.28 841.89" style="enable-background:new 0 0 595.28 841.89;" xml:space="preserve">
<style type="text/css">
	.st0{fill:#27AAE1;}
	.st1{fill:#FFFFFF;}
</style>
<g>
	<path class="st0" d="M370.17,539.65H225.83c-25.84,0-46.98-21.14-46.98-46.98V348.33c0-25.84,21.14-46.98,46.98-46.98h144.34
		c25.84,0,46.98,21.14,46.98,46.98v144.34C417.15,518.51,396.01,539.65,370.17,539.65z"/>
	<path class="st1" d="M298.6,398.5c0,0,1.02-63.83,58.47-31.91c0,0,14.55-1.53,20.17-7.4c0,0-1.28,10.47-11.49,17.62
		c0,0,7.91-0.26,16.34-4.09c0,0-6.64,14.81-16.09,18.89c0,0-1.79,136.85-147.57,83.74l38.81-13.28c0,0-19.66-8.94-21.7-23.23
		c0,0,10.47,1.79,14.81-0.26c0,0-26.55-6.64-26.04-34.98c0,0,8.43,5.11,13.28,3.57c0,0-21.96-17.11-8.17-43.91
		C229.4,363.27,253.4,400.54,298.6,398.5z"/>
</g>
</svg>
