<?xml version="1.0" encoding="utf-8"?>
<!-- Generator: Adobe Illustrator 27.9.1, SVG Export Plug-In . SVG Version: 6.00 Build 0)  -->
<svg version="1.1" id="Layer_1" xmlns="http://www.w3.org/2000/svg" xmlns:xlink="http://www.w3.org/1999/xlink" x="0px" y="0px"
	 viewBox="0 0 595.28 841.89" style="enable-background:new 0 0 595.28 841.89;" xml:space="preserve">
<style type="text/css">
	.st0{fill:#ED1C24;}
	.st1{fill:#FFFFFF;}
</style>
<g>
	<path class="st0" d="M378.92,540.94H217.08c-21.73,0-39.52-17.78-39.52-39.52V339.58c0-21.73,17.78-39.52,39.52-39.52h161.85
		c21.73,0,39.52,17.78,39.52,39.52v161.85C418.44,523.16,400.66,540.94,378.92,540.94z"/>
	<path class="st1" d="M346.72,481.22h-98.6c-17.82,0-32.4-14.58-32.4-32.4V397.2c0-17.82,14.58-32.4,32.4-32.4h98.6
		c17.82,0,32.4,14.58,32.4,32.4v51.62C379.12,466.64,364.54,481.22,346.72,481.22z"/>
	<polygon class="st0" points="281.25,397.48 281.25,444.12 322.78,420.8 	"/>
</g>
</svg>
